<svg width="48" height="48" viewBox="0 0 48 48" fill="none" xmlns="http://www.w3.org/2000/svg">
<path d="M22.2999 31.7002H25.7V22.7502L29.35 26.4002L31.75 24.0002L24 16.3002L16.25 24.0002L18.65 26.4002L22.2999 22.7502V31.7002ZM24 44.3002C21.2333 44.3002 18.6083 43.7669 16.125 42.7002C13.6416 41.6335 11.4833 40.1835 9.64995 38.3502C7.81662 36.5169 6.36662 34.3669 5.29995 31.9002C4.23328 29.4335 3.69995 26.8002 3.69995 24.0002C3.69995 21.2002 4.23328 18.5585 5.29995 16.0752C6.36662 13.5919 7.81662 11.4419 9.64995 9.6252C11.4833 7.80853 13.6333 6.36686 16.1 5.3002C18.5666 4.23353 21.2 3.7002 24 3.7002C26.8 3.7002 29.4416 4.23353 31.9249 5.3002C34.4083 6.36686 36.5583 7.80853 38.375 9.6252C40.1916 11.4419 41.6333 13.5835 42.7 16.0502C43.7666 18.5169 44.2999 21.1669 44.2999 24.0002C44.2999 26.8002 43.7666 29.4335 42.7 31.9002C41.6333 34.3669 40.1916 36.5169 38.375 38.3502C36.5583 40.1835 34.4166 41.6335 31.95 42.7002C29.4833 43.7669 26.8333 44.3002 24 44.3002V44.3002Z" fill="#757575"/>
</svg>
