<svg width="48" height="48" viewBox="0 0 48 48" fill="none" xmlns="http://www.w3.org/2000/svg">
<path d="M13.35 38.85V34.1501H28.65C30.75 34.1501 32.5583 33.4584 34.075 32.0751C35.5917 30.6917 36.35 28.9667 36.35 26.9C36.35 24.8334 35.5917 23.1084 34.075 21.725C32.5583 20.3417 30.75 19.65 28.65 19.65H15.95L20.8 24.5L17.5 27.8L6.95 17.3L17.5 6.80005L20.8 10.1L15.95 14.95H28.6C32 14.95 34.925 16.1084 37.375 18.425C39.825 20.7417 41.05 23.5667 41.05 26.9C41.05 30.2334 39.825 33.0584 37.375 35.375C34.925 37.6917 32 38.85 28.6 38.85H13.35Z" fill="#757575"/>
</svg>
