<svg width="41" height="35" viewBox="0 0 41 35" fill="none" xmlns="http://www.w3.org/2000/svg">
<path d="M1.34112 33.6812V30.2319H6.46612C4.35864 28.5411 2.75409 26.6643 1.65245 24.6014C0.550818 22.5386 0 20.0024 0 16.9928C0 13.2391 1.10164 9.78985 3.30491 6.64493C5.50818 3.5 8.5736 1.42029 12.5012 0.405797V5.12319C10.234 5.79952 8.31815 7.24517 6.7535 9.46015C5.18886 11.6751 4.40654 14.186 4.40654 16.9928C4.40654 19.0894 4.81367 20.9493 5.62792 22.5725C6.44217 24.1957 7.75935 25.6329 9.57944 26.8841V21.4565H12.8364V33.6812H1.34112ZM22.6554 35C20.8034 35 19.2148 34.3068 17.8896 32.9203C16.5644 31.5338 15.9019 29.843 15.9019 27.8478C15.9019 26.0556 16.4687 24.4831 17.6022 23.1304C18.7358 21.7778 20.1168 20.9831 21.7453 20.7464C22.384 19.4952 23.302 18.4891 24.4994 17.7283C25.6968 16.9674 26.9981 16.587 28.403 16.587C30.4147 16.587 32.1151 17.2041 33.5041 18.4384C34.8931 19.6727 35.6834 21.1353 35.875 22.8261H35.9708C37.3438 23.029 38.5253 23.68 39.5152 24.779C40.5051 25.878 41 27.2222 41 28.8116C41 30.5024 40.4172 31.9565 39.2518 33.1739C38.0863 34.3913 36.7052 35 35.1086 35H22.6554ZM27.6846 14.8623C27.3014 13.1377 26.7107 11.6413 25.9124 10.3732C25.1141 9.10507 24.0763 7.91304 22.7991 6.7971V12.2246H19.4942V0H31.0374V3.44928H25.9124C27.477 4.97101 28.8341 6.73792 29.9836 8.75C31.1332 10.7621 31.8357 12.7995 32.0911 14.8623H27.6846Z" fill="#757575"/>
</svg>
