<svg width="18" height="18" viewBox="0 0 18 18" fill="none" xmlns="http://www.w3.org/2000/svg">
<path d="M17.9433 8.00353C17.9145 7.74962 17.6191 7.56065 17.3635 7.56065C16.82 7.57258 16.2955 7.36087 15.9129 6.97485C15.5302 6.58885 15.3229 6.06271 15.34 5.51951C15.3567 4.9764 15.5962 4.46409 16.0021 4.10258C16.0963 4.01719 16.1545 3.89916 16.1649 3.77244C16.1753 3.64574 16.137 3.51979 16.0578 3.42022C15.6372 2.88843 15.1582 2.40537 14.6298 1.98017C14.5299 1.90031 14.4032 1.86176 14.2757 1.87206C14.1482 1.88248 14.0294 1.94112 13.9437 2.03593C13.6617 2.33278 13.2979 2.53921 12.8986 2.62925C12.4991 2.71928 12.082 2.68889 11.6998 2.54172C11.3212 2.37986 11.0017 2.10537 10.7846 1.75566C10.5674 1.40581 10.4633 0.997847 10.4861 0.586861C10.493 0.459155 10.451 0.333586 10.3687 0.235634C10.2865 0.137688 10.1701 0.0746533 10.0431 0.0593325C9.37068 -0.0178918 8.69173 -0.0197755 8.01891 0.0539329C7.89368 0.0678711 7.77824 0.128396 7.69557 0.223452C7.61279 0.318382 7.56882 0.441064 7.57234 0.567028C7.58691 0.974382 7.4765 1.37659 7.25604 1.71953C7.03558 2.06246 6.7155 2.32991 6.3388 2.48601C5.95818 2.6274 5.54466 2.65491 5.14871 2.565C4.75278 2.47521 4.39161 2.27192 4.10936 1.98023C4.02407 1.88693 3.90675 1.82942 3.78087 1.819C3.65488 1.8087 3.52976 1.84637 3.43042 1.92435C2.89178 2.34713 2.40362 2.83035 1.97541 3.36452C1.89602 3.46435 1.85719 3.59055 1.86687 3.71774C1.87655 3.84482 1.93395 3.96373 2.02753 4.05039C2.33555 4.32627 2.54997 4.69106 2.6413 5.09426C2.73262 5.49747 2.69619 5.919 2.53717 6.30061C2.36595 6.67254 2.08872 6.9857 1.74013 7.20095C1.39167 7.41618 0.987319 7.52379 0.577913 7.51036C0.45079 7.50232 0.325548 7.54401 0.22884 7.62663C0.13199 7.70938 0.0711926 7.82642 0.0592588 7.95311C-0.0197529 8.63258 -0.0197529 9.3188 0.0592588 9.99814C0.0826234 10.261 0.388877 10.441 0.646396 10.441C1.04322 10.4377 1.43176 10.5538 1.76189 10.774C2.09202 10.9941 2.34825 11.3083 2.49762 11.6759C2.65025 12.0538 2.68379 12.4694 2.5941 12.8669C2.50428 13.2645 2.29538 13.6251 1.99516 13.901C1.90145 13.9862 1.84354 14.1039 1.83311 14.2302C1.82281 14.3564 1.86075 14.482 1.93939 14.5814C2.35782 15.114 2.83579 15.5972 3.36388 16.0215C3.46337 16.1017 3.58974 16.141 3.71723 16.1312C3.84473 16.1216 3.96369 16.0637 4.05 15.9694C4.33238 15.672 4.69653 15.465 5.09651 15.3743C5.49649 15.2836 5.91442 15.3134 6.29741 15.4599C6.67717 15.6199 6.99785 15.8936 7.21556 16.2435C7.43325 16.5932 7.53713 17.0018 7.51301 17.4131C7.5061 17.5408 7.54806 17.6663 7.63034 17.7643C7.71262 17.8622 7.82894 17.9251 7.95593 17.9406C8.30038 17.9796 8.64669 17.9995 8.99328 18C9.32364 18.0006 9.65378 17.982 9.98185 17.9441C10.1079 17.9302 10.2238 17.8691 10.3066 17.7733C10.3894 17.6775 10.433 17.554 10.4286 17.4275C10.4133 17.0204 10.5228 16.6183 10.7428 16.2753C10.9626 15.9322 11.2821 15.6647 11.6585 15.5085C12.0389 15.3678 12.4522 15.3413 12.8474 15.4324C13.2425 15.5236 13.6024 15.7284 13.8825 16.0215C13.9678 16.1148 14.0852 16.1723 14.211 16.1827C14.337 16.193 14.4621 16.1553 14.5615 16.0773C15.0993 15.6537 15.5874 15.1705 16.0165 14.6372C16.0967 14.5377 16.1361 14.4113 16.1263 14.2839C16.1166 14.1565 16.0587 14.0376 15.9644 13.9513C15.5568 13.5922 15.3148 13.0816 15.2947 12.5389C15.2747 11.9963 15.4785 11.4693 15.8584 11.0811C16.2384 10.693 16.761 10.4777 17.3042 10.4859H17.4159H17.4158C17.5435 10.4928 17.6691 10.4509 17.7671 10.3686C17.8651 10.2864 17.9282 10.1701 17.9434 10.0431C18.0189 9.36531 18.0189 8.68122 17.9434 8.00351L17.9433 8.00353ZM9.01308 12.0195C8.21692 12.0195 7.4533 11.7035 6.89028 11.1407C6.32726 10.5778 6.01108 9.81463 6.01108 9.01863C6.01108 8.22276 6.32726 7.45955 6.89028 6.89674C7.4533 6.33393 8.21692 6.01774 9.01308 6.01774C9.80924 6.01774 10.5727 6.33392 11.1357 6.89674C11.6988 7.45955 12.0151 8.22276 12.0151 9.01863C12.0141 9.81425 11.6975 10.577 11.1348 11.1395C10.572 11.7022 9.80896 12.0187 9.01308 12.0195Z" fill="#757575" fill-opacity="0.8"/>
</svg>
