<svg width="9" height="13" viewBox="0 0 9 13" fill="none" xmlns="http://www.w3.org/2000/svg">
<path d="M4.96005 12.76L8.16005 9.55997C8.48002 9.24 8.48002 8.75997 8.16005 8.44C7.84007 8.12003 7.36005 8.12003 7.04008 8.44L5.20002 10.2799L5.20002 0.99995C5.20002 0.519922 4.88005 0.199951 4.40002 0.199951C3.91999 0.199951 3.60002 0.519922 3.60002 0.99995L3.60002 10.2799L1.76008 8.44C1.44011 8.12003 0.960081 8.12003 0.64011 8.44C0.320139 8.75997 0.320139 9.24 0.64011 9.55997L3.84011 12.76C4.16008 13.0799 4.63999 13.0799 4.96008 12.76L4.96005 12.76Z" fill="#757575"/>
</svg>
