<svg width="8" height="13" viewBox="0 0 8 13" fill="none" xmlns="http://www.w3.org/2000/svg">
<path d="M4.80003 12L4.80003 2.72L6.63998 4.55995C6.95995 4.87992 7.43997 4.87992 7.75995 4.55995C8.07992 4.23998 8.07992 3.75995 7.75995 3.43998L4.55995 0.239978C4.23998 -0.079993 3.75995 -0.079993 3.43998 0.239978L0.23998 3.43998C-0.0799912 3.75995 -0.0799912 4.23997 0.23998 4.55995C0.559951 4.87992 1.03998 4.87992 1.35995 4.55995L3.20001 2.72L3.20001 12C3.20001 12.48 3.51998 12.8 4.00001 12.8C4.48003 12.8 4.8 12.48 4.8 12L4.80003 12Z" fill="#757575"/>
</svg>
